<svg width="16" height="16" viewBox="0 0 16 16" fill="none" xmlns="http://www.w3.org/2000/svg">
<path d="M14.6235 13.3557L13.8329 5.67844C13.8002 5.36009 13.532 5.11812 13.212 5.11812H2.8089C2.48974 5.11812 2.22174 5.35928 2.18824 5.67678L1.37637 13.3578C1.30937 14.0282 1.53283 14.7019 1.9893 15.2064C2.4458 15.7106 3.0933 16 3.76596 16H12.2551C12.9246 16 13.5661 15.7164 14.0143 15.2214C14.4687 14.7206 14.6907 14.0415 14.6235 13.3557ZM13.0899 14.3832C12.8743 14.6207 12.5778 14.7516 12.2551 14.7516H3.76618C3.44555 14.7516 3.13533 14.612 2.91499 14.3686C2.69465 14.1252 2.58668 13.802 2.6183 13.4856L3.37065 6.36672H12.6488L13.3816 13.481C13.4149 13.8187 13.311 14.1391 13.0899 14.3832Z" fill="#7C7C7C"/>
<path d="M8.11446 0C6.14121 0 4.53577 1.60541 4.53577 3.57869V5.74253H5.78414V3.57869C5.78414 2.29369 6.82946 1.24838 8.11446 1.24838C9.39946 1.24838 10.445 2.29369 10.445 3.57869V5.74253H11.6931V3.57869C11.6932 1.60541 10.0877 0 8.11446 0Z" fill="#7C7C7C"/>
</svg>
