<svg width="16" height="16" viewBox="0 0 16 16" fill="none" xmlns="http://www.w3.org/2000/svg">
<path d="M14.5846 2.06793C13.6593 1.14265 12.4213 0.633121 11.0983 0.633121C9.95931 0.633121 8.88344 1.01087 8.01572 1.70631C7.13553 1.01087 6.05831 0.633121 4.93044 0.633121C3.60131 0.633121 2.36006 1.14287 1.43481 2.06793C0.509531 2.99303 0 4.23122 0 5.554C0 6.87697 0.509531 8.11496 1.43481 9.04003L7.59309 15.1983C7.70531 15.3107 7.85266 15.3669 8 15.3669C8.14697 15.3669 8.29391 15.3109 8.40634 15.1991L14.5696 9.05459C15.4922 8.11131 16 6.87159 16 5.56359C16 4.2435 15.4989 3.00378 14.5846 2.06793ZM13.7517 8.24443L8.00056 13.978L2.24863 8.22622C1.54091 7.51831 1.15106 6.56925 1.15106 5.554C1.15106 4.53875 1.54091 3.58968 2.24863 2.88178C2.95653 2.17406 3.90887 1.78422 4.93044 1.78422C5.93572 1.78422 6.88997 2.17578 7.61688 2.88637C7.84209 3.10681 8.20334 3.10487 8.42609 2.88178C9.134 2.17406 10.0829 1.78422 11.0983 1.78422C12.1137 1.78422 13.0626 2.17406 13.7657 2.87715C14.4642 3.59178 14.8489 4.54584 14.8489 5.56359C14.8489 6.56906 14.4576 7.52309 13.7517 8.24443Z" fill="#7C7C7C"/>
</svg>
